<svg aria-hidden="true" style="position: absolute; width: 0; height: 0; overflow: hidden;" version="1.1" xmlns="http://www.w3.org/2000/svg" xmlns:xlink="http://www.w3.org/1999/xlink">
<defs>
<symbol id="icon-cross" viewBox="0 0 32 32">
<path stroke-linejoin="round" stroke-linecap="round" stroke-miterlimit="4" stroke-width="3" d="M24 8l-16 16"></path>
<path stroke-linejoin="round" stroke-linecap="round" stroke-miterlimit="4" stroke-width="3" d="M8 8l16 16"></path>
</symbol>
<symbol id="icon-eye-on" viewBox="0 0 32 32">
<path stroke-linejoin="round" stroke-linecap="round" stroke-miterlimit="4" stroke-width="1.3333" d="M2.715 16.429c-0.092-0.277-0.092-0.575 0-0.852 1.849-5.564 7.099-9.577 13.285-9.577 6.184 0 11.431 4.009 13.284 9.571 0.093 0.276 0.093 0.575 0 0.852-1.848 5.564-7.097 9.577-13.284 9.577-6.184 0-11.432-4.009-13.285-9.571z"></path>
<path stroke-linejoin="round" stroke-linecap="round" stroke-miterlimit="4" stroke-width="1.3333" d="M20 16c0 1.061-0.421 2.078-1.172 2.828s-1.768 1.172-2.828 1.172c-1.061 0-2.078-0.421-2.828-1.172s-1.172-1.768-1.172-2.828c0-1.061 0.421-2.078 1.172-2.828s1.768-1.172 2.828-1.172c1.061 0 2.078 0.421 2.828 1.172s1.172 1.768 1.172 2.828z"></path>
</symbol>
<symbol id="icon-down" viewBox="0 0 48 32">
<path stroke-linejoin="round" stroke-linecap="round" stroke-miterlimit="4" stroke-width="8" d="M4 6l20 20 20-20"></path>
</symbol>
<symbol id="icon-apple" viewBox="0 0 26 32">
<path d="M19.7 0.778c0 1.566-0.561 3.029-1.678 4.382-1.349 1.609-2.98 2.539-4.75 2.392-0.023-0.188-0.036-0.386-0.036-0.594 0-1.503 0.641-3.113 1.781-4.428 0.569-0.666 1.292-1.22 2.169-1.662 0.875-0.435 1.703-0.676 2.482-0.717 0.010 0.093 0.018 0.186 0.023 0.279 0.006 0.116 0.009 0.232 0.009 0.347z"></path>
<path d="M25.622 24.557c-0.464 1.094-1.014 2.101-1.65 3.027-0.868 1.262-1.578 2.136-2.126 2.621-0.849 0.796-1.758 1.204-2.732 1.228-0.699 0-1.542-0.203-2.523-0.615-0.985-0.41-1.889-0.613-2.717-0.613-0.868 0-1.798 0.203-2.794 0.613-0.997 0.412-1.8 0.626-2.414 0.648-0.934 0.041-1.865-0.379-2.794-1.26-0.593-0.528-1.335-1.432-2.223-2.714-0.953-1.369-1.737-2.956-2.351-4.765-0.658-1.954-0.987-3.847-0.987-5.679 0-2.099 0.444-3.909 1.335-5.426 0.7-1.219 1.63-2.18 2.795-2.885s2.424-1.065 3.779-1.088c0.742 0 1.714 0.234 2.923 0.694 1.205 0.462 1.979 0.696 2.318 0.696 0.254 0 1.113-0.274 2.571-0.819 1.378-0.506 2.541-0.716 3.494-0.633 2.582 0.213 4.522 1.251 5.812 3.123-2.309 1.428-3.452 3.428-3.429 5.993 0.021 1.998 0.731 3.661 2.127 4.981 0.633 0.613 1.339 1.086 2.126 1.423-0.171 0.505-0.35 0.988-0.542 1.452z"></path>
</symbol>
<symbol id="icon-like" viewBox="0 0 38 32">
<path stroke-linejoin="round" stroke-linecap="round" stroke-miterlimit="4" stroke-width="2.9091" d="M32.839 4.355c-0.805-0.805-1.76-1.444-2.812-1.88s-2.179-0.66-3.318-0.66c-1.138 0-2.266 0.224-3.318 0.66s-2.007 1.075-2.812 1.88l-1.67 1.67-1.67-1.67c-1.626-1.626-3.831-2.539-6.13-2.539s-4.504 0.913-6.13 2.539c-1.626 1.626-2.539 3.831-2.539 6.13s0.913 4.504 2.539 6.13l13.93 13.93 13.93-13.93c0.805-0.805 1.444-1.76 1.88-2.812s0.66-2.179 0.66-3.318-0.224-2.266-0.66-3.318c-0.436-1.052-1.075-2.007-1.88-2.812z"></path>
</symbol>
<symbol id="icon-ukraine" viewBox="0 0 32 32">
<path fill="#ffda44" style="fill: var(--color1, #ffda44)" d="M16 32c8.837 0 16-7.163 16-16s-7.163-16-16-16c-8.837 0-16 7.163-16 16s7.163 16 16 16z"></path>
<path fill="#338af3" style="fill: var(--color2, #338af3)" d="M0 16c0-8.836 7.163-16 16-16s16 7.163 16 16z"></path>
</symbol>
<symbol id="icon-log-in" viewBox="0 0 32 32">
<path fill="none" stroke="#f4c550" style="stroke: var(--color3, #f4c550)" stroke-linejoin="round" stroke-linecap="round" stroke-miterlimit="4" stroke-width="3.2" d="M20 4h1.6c2.24 0 3.36 0 4.216 0.436 0.753 0.383 1.364 0.995 1.748 1.748 0.436 0.856 0.436 1.976 0.436 4.216v11.2c0 2.24 0 3.36-0.436 4.216-0.384 0.753-0.995 1.364-1.748 1.748-0.856 0.436-1.976 0.436-4.216 0.436h-1.6"></path>
<path fill="none" stroke="#f4c550" style="stroke: var(--color3, #f4c550)" stroke-linejoin="round" stroke-linecap="round" stroke-miterlimit="4" stroke-width="3.2" d="M13.333 9.333l6.667 6.667M20 16l-6.667 6.667M20 16h-16"></path>
</symbol>
<symbol id="icon-eye-off" viewBox="0 0 32 32">
<path stroke-linejoin="round" stroke-linecap="round" stroke-miterlimit="4" stroke-width="3.2" d="M23.92 23.92c-2.279 1.737-5.055 2.7-7.92 2.747-9.333 0-14.667-10.667-14.667-10.667 1.659-3.091 3.959-5.791 6.747-7.92M13.2 5.653c0.918-0.215 1.857-0.322 2.8-0.32 9.333 0 14.667 10.667 14.667 10.667-0.809 1.514-1.775 2.94-2.88 4.253M18.827 18.827c-0.366 0.393-0.808 0.708-1.299 0.927s-1.020 0.336-1.557 0.346c-0.537 0.009-1.071-0.089-1.569-0.291s-0.95-0.5-1.33-0.88-0.679-0.832-0.88-1.33c-0.201-0.498-0.3-1.032-0.29-1.569s0.127-1.067 0.346-1.557 0.534-0.932 0.927-1.298"></path>
<path stroke-linejoin="round" stroke-linecap="round" stroke-miterlimit="4" stroke-width="3.2" d="M1.333 1.333l29.333 29.333"></path>
</symbol>
<symbol id="icon-star" viewBox="0 0 32 32">
<path fill="#ffc531" style="fill: var(--color4, #ffc531); stroke: var(--color4, #ffc531)" stroke="#ffc531" stroke-linejoin="miter" stroke-linecap="butt" stroke-miterlimit="4" stroke-width="2.4" d="M12.4 9.394l3.6-6.822 3.6 6.822c0.318 0.603 0.899 1.025 1.571 1.141l7.601 1.315-5.376 5.532c-0.475 0.489-0.697 1.171-0.6 1.846l1.098 7.635-6.922-3.404c-0.612-0.301-1.329-0.301-1.941 0l-6.922 3.404 1.098-7.635c0.097-0.675-0.125-1.357-0.6-1.846l-5.376-5.532 7.601-1.315c0.672-0.116 1.252-0.538 1.571-1.141zM29.035 11.579v0zM7.767 27.031c0 0 0 0 0 0h-0z"></path>
</symbol>
<symbol id="icon-book" viewBox="0 0 32 32">
<path stroke-linejoin="round" stroke-linecap="round" stroke-miterlimit="4" stroke-width="3" d="M29.333 8.267c0-1.493 0-2.24-0.291-2.811-0.256-0.502-0.664-0.91-1.165-1.165-0.571-0.291-1.317-0.291-2.811-0.291h-0.533c-2.987 0-4.48 0-5.621 0.581-1.004 0.511-1.819 1.327-2.331 2.331-0.581 1.141-0.581 2.634-0.581 5.621v15.467l0.133-0.2c0.926-1.389 1.389-2.084 2.001-2.587 0.542-0.445 1.166-0.779 1.837-0.983 0.758-0.23 1.593-0.23 3.262-0.23h1.833c1.494 0 2.24 0 2.811-0.291 0.502-0.256 0.91-0.664 1.165-1.165 0.291-0.57 0.291-1.317 0.291-2.811v-11.467z"></path>
<path stroke-linejoin="round" stroke-linecap="round" stroke-miterlimit="4" stroke-width="3" d="M2.667 8.267c0-1.493 0-2.24 0.291-2.811 0.256-0.502 0.664-0.91 1.165-1.165 0.57-0.291 1.317-0.291 2.811-0.291h0.533c2.987 0 4.48 0 5.621 0.581 1.004 0.511 1.819 1.327 2.331 2.331 0.581 1.141 0.581 2.634 0.581 5.621v15.467l-0.133-0.2c-0.926-1.389-1.389-2.084-2.001-2.587-0.542-0.445-1.166-0.779-1.837-0.983-0.758-0.23-1.593-0.23-3.262-0.23h-1.833c-1.493 0-2.24 0-2.811-0.291-0.502-0.256-0.91-0.664-1.165-1.165-0.291-0.57-0.291-1.317-0.291-2.811v-11.467z"></path>
</symbol>
<symbol id="icon-login" viewBox="0 0 32 32">
<path d="M14.667 9.333l-1.867 1.867 3.467 3.467h-13.6v2.667h13.6l-3.467 3.467 1.867 1.867 6.667-6.667zM26.667 25.333h-10.667v2.667h10.667c1.467 0 2.667-1.2 2.667-2.667v-18.667c0-1.467-1.2-2.667-2.667-2.667h-10.667v2.667h10.667z"></path>
</symbol>
<symbol id="icon-image" viewBox="0 0 32 32">
<path d="M29.996 4c0.001 0.001 0.003 0.002 0.004 0.004v23.993c-0.001 0.001-0.002 0.003-0.004 0.004h-27.993c-0.001-0.001-0.003-0.002-0.004-0.004v-23.993c0.001-0.001 0.002-0.003 0.004-0.004h27.993zM30 2h-28c-1.1 0-2 0.9-2 2v24c0 1.1 0.9 2 2 2h28c1.1 0 2-0.9 2-2v-24c0-1.1-0.9-2-2-2v0z"></path>
<path d="M26 9c0 1.657-1.343 3-3 3s-3-1.343-3-3 1.343-3 3-3 3 1.343 3 3z"></path>
<path d="M28 26h-24v-4l7-12 8 10h2l7-6z"></path>
</symbol>
<symbol id="icon-user" viewBox="0 0 32 32">
<path d="M18 22.082v-1.649c2.203-1.241 4-4.337 4-7.432 0-4.971 0-9-6-9s-6 4.029-6 9c0 3.096 1.797 6.191 4 7.432v1.649c-6.784 0.555-12 3.888-12 7.918h28c0-4.030-5.216-7.364-12-7.918z"></path>
</symbol>
<symbol id="icon-menu" viewBox="0 0 32 32">
<path d="M2 6h28v6h-28zM2 14h28v6h-28zM2 22h28v6h-28z"></path>
</symbol>
</defs>
</svg>
